<svg width="44" height="40" viewBox="0 0 44 40" fill="none" xmlns="http://www.w3.org/2000/svg">
<path fill-rule="evenodd" clip-rule="evenodd" d="M14.8863 2.70754C15.0088 2.79927 15.0845 2.94041 15.0932 3.09318L15.2712 6.23475C15.2989 6.72376 14.9683 7.16088 14.4903 7.2674L11.5036 7.93287C11.0463 8.03476 10.7211 8.44045 10.7211 8.90894V10.1009C10.7211 10.2987 10.8814 10.4591 11.0792 10.4591C11.2711 10.4591 11.4289 10.6103 11.437 10.802L11.9894 23.7679C12.0094 24.2365 11.701 24.656 11.2477 24.7768L0.742622 27.5748C0.304728 27.6914 0 28.088 0 28.5411V28.7369C0 28.9554 0.0715287 29.1678 0.203653 29.3418L4.22771 34.6399C4.34576 34.7953 4.5067 34.9128 4.69071 34.9779L15.7309 38.8813C20.1245 40.3702 26.1243 40.063 28.7414 39.7052C28.8524 39.6901 28.9594 39.6547 29.0585 39.6024C40.2055 33.7245 42.9121 23.7037 42.8877 19.1883C42.887 19.0641 42.9867 18.9657 43.111 18.9657C43.2668 18.9657 43.3736 18.8089 43.3166 18.664L43.0859 18.0773C42.9695 17.7815 42.6563 17.6131 42.3453 17.6793L32.6955 19.7327C32.0346 19.8733 31.4273 19.3316 31.4919 18.659L32.3781 9.42834C32.4006 9.19349 32.5256 8.98054 32.7197 8.84636C32.9359 8.69685 33.0649 8.45073 33.0649 8.18787V7.14935C33.0649 6.64043 32.6827 6.21268 32.177 6.15565L23.9129 5.22371C23.8028 5.2113 23.6914 5.21726 23.5833 5.24135L20.9561 5.82672C20.3315 5.9659 19.7386 5.49064 19.7386 4.85066V3.08306C19.7386 2.93656 19.8027 2.79739 19.914 2.70211C20.0253 2.60684 20.0893 2.46767 20.0893 2.32117V1.18732C20.0893 0.749081 19.8041 0.360337 19.3771 0.261699C18.8071 0.130009 18.0671 0 17.4341 0C16.792 0 16.0099 0.133805 15.4069 0.267426C14.9724 0.363704 14.6787 0.756547 14.6787 1.20157V2.29256C14.6787 2.45587 14.7556 2.60963 14.8863 2.70754ZM26.7548 19.1307C26.1301 19.2007 25.5965 18.6839 25.6466 18.0573L26.1278 12.0298C26.1694 11.51 26.6033 11.1094 27.1247 11.1094H29.8927C30.4708 11.1094 30.9285 11.5982 30.8905 12.1751L30.5147 17.8805C30.4829 18.3636 30.1095 18.7546 29.6283 18.8085L26.7548 19.1307ZM16.3272 25.581C15.8119 26.4332 14.5034 26.0905 14.472 25.0951L14.1777 15.763C14.2111 14.8623 14.7188 13.0609 16.4823 13.0609C18.1907 13.0609 19.128 15.1587 19.4126 16.3058C19.4303 16.3772 19.4381 16.4506 19.4381 16.5242V22.1876C19.4381 22.6466 19.1256 23.0467 18.6803 23.1579L18.0346 23.3191C17.7783 23.3831 17.5578 23.5459 17.4211 23.7719L16.3272 25.581Z" fill="#F2F2F2"/>
</svg>
